<?xml version="1.0" standalone="no"?>
<!DOCTYPE svg PUBLIC "-//W3C//DTD SVG 20010904//EN"
 "http://www.w3.org/TR/2001/REC-SVG-20010904/DTD/svg10.dtd">
<svg version="1.0" xmlns="http://www.w3.org/2000/svg"
 width="700.000000pt" height="700.000000pt" viewBox="0 0 700.000000 700.000000"
 preserveAspectRatio="xMidYMid meet">
<metadata>
Created by potrace 1.14, written by Peter Selinger 2001-2017
</metadata>
<g transform="translate(0.000000,700.000000) scale(0.100000,-0.100000)"
fill="#000000" stroke="none">
<path d="M1300 6210 l0 -480 2200 0 2200 0 0 480 0 480 -2200 0 -2200 0 0
-480z m830 181 c0 -4 -5 -22 -11 -39 -9 -27 -14 -30 -29 -22 -10 6 -57 10
-104 10 l-86 0 0 -40 0 -40 86 0 86 0 -7 -37 c-9 -52 -14 -57 -35 -38 -13 12
-33 15 -71 13 l-54 -3 0 -55 0 -55 73 -3 c40 -2 89 2 109 7 20 6 38 9 40 8 1
-2 -3 -20 -9 -40 l-11 -37 -169 0 c-92 0 -168 3 -168 6 0 3 11 15 25 26 24 19
25 22 25 153 0 129 -1 134 -26 164 l-26 31 181 0 c100 0 181 -4 181 -9z m327
-103 l113 -113 0 93 c0 51 -5 102 -10 113 -10 18 -7 19 57 19 l67 0 -27 -28
-27 -28 0 -162 c0 -122 -3 -162 -12 -162 -7 0 -79 66 -160 147 l-148 148 0
-132 c0 -77 4 -134 10 -138 26 -16 4 -25 -57 -25 l-68 1 28 22 27 23 0 142 c0
142 0 143 -26 167 l-27 25 74 0 74 0 112 -112z m688 83 c-3 -13 -8 -36 -12
-51 l-5 -29 -39 41 c-37 40 -40 40 -94 36 -64 -5 -107 -38 -126 -95 -14 -43
-4 -118 22 -160 27 -44 97 -71 139 -53 27 11 30 17 30 55 0 36 -5 47 -27 64
l-28 20 73 1 73 0 -3 -67 c-3 -64 -4 -68 -37 -87 -25 -14 -53 -20 -110 -20
-102 -1 -179 34 -222 102 -61 96 -30 185 83 242 61 30 66 31 176 28 l113 -3
-6 -24z m281 7 c-13 -18 -16 -52 -16 -160 l0 -138 65 0 c35 0 85 7 111 16 25
8 47 14 49 12 2 -2 -8 -23 -23 -46 l-27 -42 -158 0 -158 0 15 22 c13 18 16 52
16 168 0 116 -3 150 -16 168 l-15 22 86 0 86 0 -15 -22z m582 -5 c35 -96 143
-316 163 -333 l24 -19 -97 -1 c-89 0 -116 8 -88 25 13 8 13 38 -2 70 -11 25
-13 26 -100 23 l-89 -3 -22 -38 c-21 -36 -21 -39 -4 -51 29 -22 20 -26 -50
-26 l-67 0 27 28 c14 15 47 74 72 132 26 58 56 123 66 144 11 22 17 48 13 58
-5 16 2 18 69 18 73 0 75 -1 85 -27z m509 -85 l113 -113 0 93 c0 51 -5 102
-10 113 -10 18 -7 19 57 19 l68 0 -28 -25 -27 -26 0 -164 c0 -125 -3 -165 -12
-165 -7 0 -85 66 -173 145 l-160 145 -3 -117 c-3 -116 -2 -118 23 -140 14 -12
25 -25 25 -28 0 -3 -29 -5 -65 -5 -62 0 -65 1 -55 19 15 29 13 334 -2 349 -9
9 5 12 62 12 l75 0 112 -112z m620 97 c144 -43 198 -150 129 -256 -51 -77
-146 -109 -322 -109 -100 0 -104 1 -94 19 15 29 13 334 -2 349 -19 19 224 16
289 -3z"/>
<path d="M3883 6259 c-12 -30 -24 -62 -28 -71 -6 -16 0 -18 50 -18 64 0 63 -3
21 94 l-22 50 -21 -55z"/>
<path d="M4980 6210 l0 -130 45 0 c68 0 125 27 141 66 18 43 18 108 -1 143
-17 35 -60 51 -131 51 l-54 0 0 -130z"/>
<path d="M1302 3998 c3 -1468 4 -1569 22 -1658 64 -330 167 -595 333 -850 230
-352 577 -642 1058 -883 198 -99 392 -175 652 -257 l131 -42 79 22 c839 235
1493 666 1812 1193 139 230 223 459 283 769 22 113 22 118 25 1691 l4 1577
-2201 0 -2200 0 2 -1562z m4315 -30 c-3 -1296 -5 -1486 -19 -1579 -60 -390
-203 -721 -435 -1009 -85 -105 -280 -291 -395 -378 -300 -225 -681 -410 -1117
-541 l-135 -41 -70 21 c-460 133 -878 330 -1176 555 -405 305 -670 690 -785
1139 -72 281 -69 186 -72 1828 l-4 1477 2106 0 2106 0 -4 -1472z"/>
<path d="M2312 5148 c-13 -15 -29 -28 -37 -28 -7 0 -20 -11 -29 -25 -9 -14
-27 -27 -41 -31 -13 -3 -31 -17 -40 -30 -8 -13 -22 -24 -31 -24 -11 0 -12 -4
-4 -19 5 -11 10 -30 10 -43 0 -13 7 -32 15 -42 8 -11 15 -32 15 -46 0 -15 9
-35 19 -44 12 -11 17 -25 13 -38 -4 -18 -3 -19 17 -9 14 8 27 9 40 2 11 -6 30
-7 48 -2 17 5 37 5 46 -1 11 -5 24 -5 37 2 11 6 31 8 45 4 19 -5 25 -2 25 10
0 9 5 16 10 16 6 0 10 19 10 43 0 24 7 52 15 63 8 10 15 30 15 44 0 14 4 31 9
38 10 17 -40 69 -75 78 -13 4 -31 15 -39 26 -7 11 -24 26 -36 32 -13 6 -26 21
-29 32 -5 20 -6 19 -28 -8z m88 -92 c0 -7 10 -16 21 -19 17 -5 21 -11 16 -33
-3 -16 1 -37 10 -51 14 -21 14 -25 -1 -42 -13 -14 -14 -20 -5 -23 19 -6 3 -25
-48 -55 -33 -19 -48 -23 -51 -15 -3 10 -7 10 -18 1 -26 -21 -104 32 -104 71 0
9 -5 21 -11 27 -9 9 -8 21 5 46 9 19 16 39 16 43 0 4 12 21 27 36 23 24 34 28
85 28 43 0 58 -4 58 -14z"/>
<path d="M2302 4964 c-18 -12 -20 -19 -12 -34 6 -11 19 -24 30 -30 16 -8 22
-6 36 15 16 24 16 27 -1 45 -22 24 -24 24 -53 4z"/>
<path d="M4691 5139 c-13 -10 -29 -19 -36 -19 -8 0 -23 -13 -35 -30 -12 -16
-28 -30 -35 -30 -21 0 -77 -58 -64 -65 6 -4 7 -20 4 -36 -5 -20 -1 -38 9 -54
9 -13 16 -35 16 -48 0 -13 9 -32 19 -41 12 -11 17 -25 13 -38 -4 -18 -3 -19
17 -9 14 8 27 9 40 2 13 -7 29 -7 49 0 22 7 36 7 51 0 14 -8 22 -8 27 0 4 6
20 8 40 4 21 -3 34 -2 34 5 0 5 9 19 19 29 16 16 18 26 12 49 -7 23 -5 31 11
41 15 9 19 19 15 41 -4 16 0 35 7 46 12 16 11 20 -15 36 -16 10 -29 22 -29 27
0 5 -12 12 -28 16 -15 3 -32 16 -37 28 -6 12 -20 23 -32 25 -13 2 -29 12 -36
22 -12 17 -13 17 -36 -1z m85 -84 c4 -8 12 -15 20 -15 7 0 17 -12 20 -27 4
-16 10 -30 14 -33 14 -9 21 -48 10 -55 -5 -3 -10 -16 -10 -29 0 -35 -67 -84
-116 -84 -60 0 -114 38 -114 80 0 10 -7 21 -15 25 -14 5 -14 8 0 29 8 13 15
30 15 38 0 9 15 31 32 51 30 32 38 35 86 35 38 0 54 -4 58 -15z"/>
<path d="M4679 4960 l-24 -20 29 -25 c33 -30 48 -28 60 8 7 18 6 30 -4 41 -17
21 -33 20 -61 -4z"/>
<path d="M1940 5148 c0 -2 8 -25 18 -53 13 -37 23 -50 37 -50 30 0 30 38 0 74
-15 17 -33 31 -41 31 -8 0 -14 -1 -14 -2z"/>
<path d="M3905 5125 c-14 -17 -25 -21 -27 -14 -8 24 -28 -2 -28 -36 0 -55 25
-65 156 -65 86 0 114 3 124 15 11 13 16 13 47 0 47 -20 53 -19 53 9 0 13 6 26
13 29 24 9 39 -9 35 -44 l-3 -34 -126 -7 c-240 -12 -341 -62 -356 -176 -17
-123 165 -227 440 -251 188 -16 358 6 582 75 231 71 271 77 313 48 80 -56 -57
-164 -277 -220 -127 -32 -196 -31 -527 13 -258 34 -299 37 -539 37 l-260 1
-148 -37 c-81 -21 -162 -38 -180 -38 -18 0 -42 -7 -53 -15 -19 -14 -19 -15 4
-33 l24 -18 -39 -17 c-21 -9 -51 -21 -66 -27 -17 -6 -32 -21 -38 -39 -11 -32
-68 -81 -93 -81 -11 0 -16 -9 -16 -30 l0 -31 -30 16 c-40 21 -55 19 -77 -9
-29 -37 -84 -66 -124 -66 -20 0 -42 -7 -49 -15 -7 -8 -37 -22 -68 -31 -66 -19
-122 -13 -172 20 -20 13 -59 26 -90 29 -160 19 -224 72 -186 152 17 35 15 66
-6 92 -8 10 -15 9 -31 -2 -28 -20 -56 -19 -79 2 -13 11 -22 13 -29 6 -7 -7 -2
-28 17 -66 16 -31 25 -59 21 -63 -14 -14 -39 8 -58 53 -11 27 -23 54 -28 62
-11 21 -31 25 -31 7 0 -19 -38 -46 -67 -46 -32 0 -42 -43 -17 -71 14 -16 28
-20 56 -17 51 5 50 -17 -1 -26 -21 -3 -44 -13 -52 -22 -12 -14 -9 -20 16 -40
17 -13 33 -24 38 -24 11 0 9 -58 -3 -65 -6 -3 -10 -10 -10 -16 0 -18 30 -8 63
21 19 17 42 30 51 30 16 0 16 -2 2 -22 -36 -52 -4 -103 66 -103 26 0 44 6 53
18 14 20 45 23 45 5 0 -7 -6 -25 -14 -40 -14 -26 -13 -27 11 -30 l25 -3 -21
-26 c-11 -15 -17 -29 -14 -33 11 -10 52 -7 88 8 19 8 35 11 35 5 0 -16 39 -10
103 15 87 35 117 41 117 25 0 -7 -7 -21 -17 -31 -15 -17 -13 -18 50 -18 63 0
86 -11 52 -24 -8 -3 -15 -12 -15 -21 0 -14 3 -14 30 0 40 21 42 19 22 -15 -12
-21 -14 -32 -6 -40 8 -8 23 2 55 33 35 35 61 49 127 70 46 15 86 27 89 27 4 0
-6 -13 -22 -30 -31 -33 -23 -38 30 -16 44 19 55 42 55 120 0 71 4 75 48 52 15
-8 35 -17 45 -20 27 -9 19 -57 -13 -73 -25 -13 -25 -13 10 -13 20 0 46 7 59
17 22 15 25 15 37 -2 18 -24 59 -13 78 22 12 25 18 27 70 24 84 -4 141 20 295
124 132 89 226 135 274 135 20 0 22 -4 19 -40 -3 -32 -1 -40 12 -40 12 0 15
-6 10 -24 -7 -29 21 -44 35 -19 8 15 10 15 26 0 9 -9 26 -17 38 -17 23 0 107
-38 107 -48 0 -4 -33 -17 -73 -29 -65 -20 -74 -21 -94 -7 -13 8 -23 18 -23 22
0 4 -17 26 -39 50 -46 50 -92 60 -83 17 7 -39 -5 -71 -33 -83 -35 -16 -22 -32
26 -32 21 0 39 -4 39 -10 0 -11 -27 -18 -80 -22 -30 -3 -35 -7 -38 -30 -4 -31
17 -38 37 -14 10 12 17 11 46 -7 19 -12 35 -31 35 -42 1 -11 4 -14 7 -7 7 17
23 15 23 -3 0 -10 10 -15 27 -15 15 0 37 -9 49 -21 l22 -21 13 35 c11 31 15
34 35 25 12 -6 27 -21 33 -34 22 -50 111 -17 111 41 0 19 8 28 37 40 20 9 44
14 53 13 23 -5 18 -41 -8 -54 l-24 -12 23 -16 c13 -9 38 -16 55 -16 47 0 80
32 98 95 18 61 33 76 52 51 7 -10 22 -16 36 -14 21 3 23 7 20 61 -3 54 -2 58
23 67 34 13 111 13 136 0 10 -6 19 -18 19 -26 0 -20 34 -14 38 7 1 9 -6 26
-16 39 -27 34 -111 38 -224 11 -98 -23 -134 -18 -142 21 -3 13 -7 35 -10 50
-8 36 -54 66 -150 99 -92 31 -109 49 -44 49 63 0 109 -15 243 -78 l119 -56
132 -6 c144 -6 174 -17 174 -67 0 -32 21 -26 38 11 9 18 19 25 29 22 13 -5 15
0 10 29 -6 38 -2 42 22 21 16 -14 34 -19 59 -17 9 1 11 11 7 34 -6 29 -3 36
20 51 35 23 87 31 113 17 17 -9 19 -16 11 -48 -5 -21 -9 -62 -9 -91 0 -29 -5
-63 -11 -74 -10 -18 -17 -20 -64 -14 l-54 6 -3 -37 c-3 -36 -5 -38 -41 -41
-33 -3 -38 -6 -35 -25 3 -20 9 -22 62 -22 71 0 81 -14 31 -43 -33 -20 -45 -45
-26 -56 5 -3 14 1 21 9 15 18 81 20 98 3 7 -7 12 -21 13 -32 0 -12 7 1 14 27
16 58 34 84 46 65 4 -7 3 -18 -2 -25 -14 -16 -7 -75 9 -81 6 -2 12 3 12 11 0
36 74 64 86 32 12 -30 44 -10 44 26 0 6 -17 26 -37 45 -37 34 -37 35 -19 49
11 8 27 15 36 15 26 0 40 22 40 62 0 32 -4 40 -25 48 -31 12 -33 30 -4 30 18
0 19 2 9 15 -10 12 -10 15 1 15 8 0 20 4 27 9 11 6 8 14 -12 34 -30 30 -36 87
-11 107 8 7 15 27 15 46 l0 33 -28 -16 c-36 -21 -62 -11 -62 22 0 27 17 34 26
10 8 -21 34 0 34 26 0 21 30 27 31 7 0 -7 5 -2 10 12 22 55 -14 110 -71 110
-30 0 -54 -12 -123 -64 -104 -77 -154 -96 -272 -103 -72 -4 -93 -3 -103 9 -10
13 -2 16 59 22 91 8 199 44 312 104 110 58 129 82 136 176 4 39 10 77 15 85 5
8 5 12 0 10 -68 -34 -64 -34 -84 -13 -17 17 -24 46 -21 82 1 7 15 12 37 12 33
0 36 -2 32 -25 -6 -30 3 -32 25 -7 24 27 21 69 -8 97 -47 48 -129 23 -165 -49
-14 -30 -21 -36 -26 -23 -3 9 -3 21 1 27 9 14 -10 13 -23 -2 -5 -7 -13 -24
-17 -38 -18 -60 -88 -102 -238 -142 -98 -26 -252 -32 -252 -9 0 22 34 39 44
22 5 -8 11 -9 15 -3 3 6 -4 18 -16 26 -46 33 -93 12 -105 -46 -5 -26 -9 -29
-32 -23 -14 3 -36 17 -49 31 -19 22 -25 24 -38 13 -9 -7 -13 -21 -10 -32 4
-18 1 -19 -51 -14 -64 7 -106 32 -111 67 -5 30 25 55 45 39 18 -16 16 -36 -4
-48 -15 -9 -13 -10 12 -11 37 0 55 16 55 48 0 33 -58 56 -119 47 -61 -9 -87
-27 -101 -70 -10 -29 -14 -34 -26 -24 -19 16 -18 46 4 58 13 7 14 13 6 21 -13
13 -51 -2 -70 -29 -10 -13 -16 -11 -44 17 -28 29 -32 38 -27 69 4 19 14 44 24
55 24 26 78 48 120 48 28 0 34 -4 31 -17 -2 -10 -11 -17 -21 -17 -23 2 -21
-23 3 -36 38 -20 106 -14 154 14 55 32 66 33 66 2 0 -17 -7 -26 -25 -30 -27
-7 -32 -25 -13 -44 39 -39 158 38 158 103 0 9 8 18 18 22 59 21 85 87 57 146
-33 71 -112 76 -275 17 -126 -45 -155 -49 -170 -21 -12 23 13 56 36 47 22 -8
16 11 -8 28 -36 25 -95 21 -123 -9z"/>
<path d="M1750 5120 c-13 -8 -13 -13 2 -37 23 -39 46 -52 58 -33 12 19 3 51
-18 68 -19 14 -22 15 -42 2z"/>
<path d="M2708 5083 c-64 -66 -97 -165 -63 -193 22 -18 18 -40 -6 -40 -17 0
-20 4 -16 23 6 20 4 20 -19 -6 -26 -31 -29 -48 -14 -78 8 -14 7 -25 -5 -41 -8
-13 -15 -43 -15 -70 0 -52 -18 -78 -55 -78 -30 0 -45 38 -22 55 13 9 14 14 5
23 -20 20 -56 13 -77 -14 -28 -35 -26 -52 5 -85 24 -26 26 -31 17 -68 -11 -41
-7 -87 8 -97 5 -3 9 4 9 15 0 25 56 81 81 81 10 0 19 -2 19 -4 0 -2 -16 -21
-36 -42 -64 -67 -83 -152 -46 -199 l18 -22 12 51 c11 47 45 97 57 85 2 -3 -3
-43 -13 -90 l-18 -84 -37 -3 c-21 -2 -37 1 -37 7 0 6 -7 11 -15 11 -18 0 -20
-32 -4 -63 12 -21 11 -22 -8 -4 -18 15 -22 16 -33 2 -17 -21 -5 -61 25 -81 63
-41 173 -21 221 41 14 18 30 60 37 95 11 52 15 59 26 47 12 -15 5 -85 -14
-129 -9 -23 6 -23 50 -2 51 24 62 49 67 149 7 152 35 152 38 0 l1 -80 18 50
c9 28 24 61 32 73 20 28 33 15 46 -48 l10 -45 21 45 c11 25 23 57 26 72 5 24
9 26 46 21 46 -6 50 1 15 29 -34 27 -32 34 16 42 46 7 99 52 99 85 0 11 -8 27
-17 37 -17 17 -18 16 -21 -12 -5 -38 -19 -54 -48 -54 -29 0 -54 25 -54 56 0
25 15 33 22 12 7 -19 37 -1 48 27 6 15 10 37 10 50 0 16 11 29 35 44 43 25 65
72 65 141 0 50 -6 60 -27 39 -7 -7 -19 -9 -28 -6 -14 6 -13 11 5 48 12 22 22
58 22 78 1 62 -36 111 -44 59 -4 -32 -34 -30 -31 2 5 69 -22 94 -61 55 -14
-14 -35 -25 -47 -25 -17 0 -20 5 -17 25 4 20 1 25 -14 25 -22 0 -78 -30 -78
-42 0 -4 -7 -8 -16 -8 -12 0 -15 6 -10 25 15 58 -46 13 -74 -55 -15 -37 -27
-38 -41 -2 -8 18 -8 36 -1 55 15 39 -6 35 -50 -10z m144 -161 c-1 -17 4 -25
18 -29 24 -6 25 -13 6 -39 -14 -18 -15 -18 -45 10 -21 20 -31 39 -31 59 0 25
3 28 28 25 22 -2 27 -8 24 -26z m238 -84 c-1 -51 -53 -75 -94 -45 -16 12 -16
14 -2 26 13 11 19 11 31 1 12 -10 15 -10 15 2 0 18 20 38 37 38 7 0 13 -10 13
-22z m-230 -58 c0 -35 74 -56 86 -25 4 8 10 12 15 9 15 -9 -37 -57 -55 -51
-11 4 -21 -3 -31 -22 -14 -29 -14 -29 17 -40 39 -14 75 -14 83 -1 8 13 45 13
45 0 0 -16 -47 -42 -90 -47 -30 -4 -40 -10 -40 -24 0 -20 -11 -29 -60 -46 -48
-17 -58 -16 -70 7 -8 14 -8 26 0 40 7 13 7 26 1 38 -7 13 -7 22 1 30 9 9 4 17
-16 33 -22 17 -27 28 -24 58 4 43 21 48 28 7 4 -23 13 -32 44 -43 34 -11 42
-11 54 1 12 12 12 17 -3 40 -17 26 -15 56 5 56 5 0 10 -9 10 -20z"/>
<path d="M2785 4621 c-7 -33 8 -71 28 -71 13 0 47 50 47 69 0 6 -9 11 -19 11
-11 0 -23 5 -26 10 -11 18 -23 10 -30 -19z"/>
<path d="M1850 5055 c0 -21 -46 -48 -70 -42 -27 7 -25 -9 5 -38 15 -16 35 -25
55 -25 21 0 30 -4 27 -12 -3 -9 -21 -12 -56 -10 -49 4 -81 -8 -81 -29 0 -5 16
-9 35 -9 38 0 61 -27 52 -62 -4 -15 -1 -19 16 -18 71 6 80 -5 50 -59 -17 -29
-17 -31 3 -58 12 -16 33 -29 47 -31 51 -6 17 -82 -37 -82 -29 0 -76 36 -76 58
-1 28 -30 -17 -30 -46 0 -74 79 -109 178 -77 17 6 22 3 22 -9 0 -11 9 -16 30
-16 22 0 30 -5 30 -18 0 -21 18 -42 37 -42 7 0 13 7 13 15 0 8 5 15 10 15 7 0
8 -13 4 -37 -5 -27 -3 -39 9 -47 8 -7 22 -36 31 -65 14 -48 14 -57 1 -84 -19
-38 -20 -37 11 -37 15 0 38 12 55 29 l29 29 0 -33 c0 -24 7 -39 27 -54 l26
-21 23 38 c12 20 41 48 63 60 39 22 41 26 41 71 0 27 -7 68 -15 91 -8 23 -15
64 -15 91 0 48 -1 49 -30 49 -17 0 -47 7 -66 15 -56 23 -223 154 -251 196 -33
50 -40 116 -19 195 9 34 16 69 16 78 0 21 -20 20 -36 -1 -11 -15 -16 -16 -31
-5 -50 34 -65 22 -56 -45 3 -27 2 -43 -5 -43 -13 0 -22 24 -22 61 0 17 -4 38
-10 48 -13 24 -40 35 -40 16z"/>
<path d="M3500 5012 c0 -15 -9 -26 -24 -32 -14 -5 -32 -21 -42 -35 -9 -14 -25
-25 -36 -25 -11 0 -33 -14 -49 -31 -25 -27 -28 -37 -23 -68 3 -20 12 -45 19
-56 6 -11 15 -33 18 -50 4 -16 9 -44 12 -60 l7 -30 129 0 c108 0 129 2 129 15
0 8 7 24 15 34 8 11 15 30 15 43 0 13 6 34 14 46 22 35 28 97 10 104 -9 3 -20
16 -25 29 -5 16 -17 24 -32 24 -14 0 -32 12 -45 30 -13 17 -29 30 -36 30 -8 0
-24 12 -35 28 -20 26 -20 26 -21 4z m90 -106 c0 -7 9 -16 21 -19 17 -5 20 -11
14 -36 -4 -20 -1 -38 11 -56 16 -25 16 -27 -5 -46 -11 -11 -21 -24 -21 -28 0
-5 -16 -21 -36 -36 -30 -23 -40 -26 -55 -17 -13 8 -19 8 -21 0 -2 -6 -26 5
-55 26 -59 42 -75 81 -49 120 8 13 12 33 9 45 -4 17 0 24 16 28 11 3 21 12 21
19 0 11 18 14 75 14 57 0 75 -3 75 -14z"/>
<path d="M3481 4816 c-9 -10 -9 -20 0 -40 15 -31 32 -33 59 -6 25 25 25 37 1
50 -27 14 -46 13 -60 -4z"/>
<path d="M1723 4853 c-20 -8 -15 -51 7 -63 16 -8 20 -8 20 3 0 8 9 17 20 20
12 3 20 14 20 26 0 16 -6 21 -27 20 -16 0 -34 -3 -40 -6z"/>
<path d="M2007 4438 c4 -7 10 -31 13 -53 4 -35 8 -40 34 -43 23 -3 28 0 22 13
-3 9 -6 20 -6 25 0 13 -50 70 -61 70 -6 0 -7 -6 -2 -12z"/>
<path d="M1795 4371 c-11 -5 -28 -17 -37 -27 -16 -18 -15 -19 25 -20 23 0 52
-4 65 -9 20 -7 22 -4 22 29 0 33 -2 36 -27 35 -16 0 -37 -4 -48 -8z"/>
<path d="M1806 4043 c-26 -35 -23 -103 5 -103 5 0 9 7 9 16 0 9 7 31 16 50 15
32 14 64 -3 64 -4 0 -17 -12 -27 -27z"/>
<path d="M3650 4015 c-18 -19 -31 -37 -28 -40 3 -4 29 1 57 11 42 13 51 20 51
40 0 36 -39 31 -80 -11z"/>
<path d="M4835 4006 c-31 -14 -85 -69 -85 -88 0 -5 14 2 31 16 21 18 42 26 70
26 37 0 39 2 39 30 0 33 -9 36 -55 16z"/>
<path d="M3713 3838 c-25 -31 -24 -57 1 -74 16 -10 33 -13 43 -9 12 5 14 9 6
12 -8 3 -11 14 -7 27 7 28 -28 63 -43 44z"/>
<path d="M4950 3785 c-12 -15 -8 -27 18 -58 15 -16 16 -16 29 15 12 29 12 34
-3 45 -23 17 -29 16 -44 -2z"/>
<path d="M5162 3778 c-7 -7 -12 -21 -12 -33 0 -12 5 -26 12 -33 13 -13 82 -17
76 -4 -2 4 -12 24 -21 45 -18 38 -34 46 -55 25z"/>
<path d="M3824 3746 c-15 -38 39 -76 87 -61 l23 8 -26 13 c-14 7 -28 22 -31
34 -6 23 -45 28 -53 6z"/>
<path d="M4392 3677 l-21 -22 39 0 c46 0 54 -6 45 -35 -13 -41 -48 -52 -193
-61 -75 -5 -168 -15 -207 -24 -137 -30 -220 -101 -251 -214 -8 -31 -19 -66
-25 -79 -14 -35 -92 -65 -171 -66 -63 -1 -66 -2 -51 -19 25 -27 82 -39 158
-34 39 3 75 6 80 7 6 0 69 -15 140 -34 167 -44 256 -56 414 -56 213 0 359 35
598 141 72 33 141 59 153 59 11 0 34 -7 50 -15 75 -39 3 -127 -185 -223 -103
-53 -378 -82 -600 -63 -126 11 -178 18 -465 63 -174 27 -391 29 -504 4 -179
-39 -318 -118 -337 -191 -8 -30 -30 -59 -87 -115 -75 -73 -77 -74 -80 -47 l-3
28 -51 -37 c-37 -27 -52 -34 -58 -24 -6 9 -13 9 -31 -3 -13 -9 -41 -23 -63
-32 -32 -14 -38 -14 -33 -2 4 10 -9 8 -51 -9 -119 -49 -207 -40 -368 35 -103
49 -154 86 -154 115 0 11 9 48 19 81 10 33 17 63 15 67 -3 4 -15 -4 -29 -18
-28 -28 -50 -31 -63 -8 -5 9 -18 14 -28 12 -28 -5 -30 -52 -3 -79 17 -17 19
-23 8 -30 -16 -10 -24 -3 -48 42 -25 46 -51 51 -51 10 0 -37 -41 -64 -62 -43
-19 19 -28 14 -28 -17 0 -37 22 -55 60 -47 25 5 30 2 30 -15 0 -16 -3 -18 -19
-9 -28 15 -67 12 -81 -5 -7 -9 -10 -18 -7 -22 4 -3 -3 -17 -13 -31 -24 -30
-27 -109 -5 -138 14 -18 14 -17 15 14 0 37 15 71 39 89 13 10 14 15 4 32 -20
32 -15 43 11 26 32 -21 39 -41 21 -59 -8 -8 -15 -20 -15 -26 0 -15 39 6 62 34
17 21 17 20 18 -26 0 -38 5 -50 26 -67 33 -26 50 -26 96 -2 35 17 38 17 53 1
22 -25 19 -30 -20 -30 -40 0 -41 -2 -20 -34 23 -35 0 -50 -69 -44 -43 4 -53 2
-49 -9 17 -43 123 -56 188 -23 47 24 62 26 45 5 -25 -30 40 -16 114 24 86 47
106 54 126 41 13 -9 13 -11 0 -21 -11 -7 -1 -9 38 -7 39 2 51 0 47 -9 -2 -7 3
-13 12 -13 9 0 22 -8 28 -17 12 -17 14 -17 34 1 24 22 24 21 21 -57 -1 -44 2
-63 16 -78 23 -26 34 -24 34 6 0 43 22 75 70 101 49 27 80 67 80 104 0 19 4
21 25 16 62 -15 71 -16 85 -7 12 8 12 13 2 23 -17 17 -15 35 8 58 22 22 79 27
98 8 21 -21 14 -65 -13 -86 -44 -35 9 -46 60 -12 48 32 71 26 66 -17 -3 -18
19 -16 40 3 16 15 22 14 75 -5 60 -23 103 -21 125 5 9 12 6 14 -19 14 -17 0
-43 5 -58 10 -26 10 -26 11 -9 30 10 11 29 20 42 20 60 0 171 40 335 122 97
49 191 91 209 95 30 6 30 5 17 -16 -9 -15 -10 -24 -2 -29 6 -4 13 -19 16 -34
5 -26 3 -28 -25 -28 -29 0 -29 -1 -14 -18 26 -28 21 -52 -13 -65 -34 -13 -37
-22 -15 -35 14 -7 13 -11 -5 -27 -30 -27 -27 -48 5 -33 23 10 29 8 55 -20 31
-35 50 -41 50 -17 0 11 11 15 40 15 38 0 40 -2 40 -31 0 -38 24 -35 28 4 2 19
9 27 22 27 10 0 22 6 26 12 6 9 10 5 14 -12 5 -20 13 -26 39 -28 55 -6 81 6
96 42 23 54 63 54 53 0 -2 -14 4 -20 23 -22 35 -4 73 29 89 77 13 41 23 50 35
31 11 -18 25 -10 25 14 0 34 46 69 80 61 l25 -5 -29 26 c-27 24 -34 25 -75 18
-25 -4 -68 -8 -95 -8 -51 -1 -56 2 -72 57 -14 45 -106 97 -183 104 -77 7 -77
28 0 27 45 -1 76 -11 190 -67 105 -52 154 -70 219 -81 95 -17 110 -29 110 -88
0 -21 5 -38 11 -38 14 0 39 63 39 102 0 30 1 31 17 16 15 -16 15 -19 -1 -42
-15 -24 -15 -26 0 -26 8 0 29 14 46 30 16 17 33 30 37 30 4 0 23 12 42 26 19
14 65 41 104 60 85 42 97 35 99 -52 1 -70 -8 -75 -95 -49 -68 21 -121 12 -128
-20 -3 -16 -1 -17 12 -7 13 11 20 10 41 -3 40 -26 30 -81 -16 -98 -10 -3 -10
-8 -2 -16 9 -10 19 -9 46 2 20 8 39 20 42 26 4 6 17 11 28 11 18 0 15 -6 -21
-37 -43 -37 -62 -68 -54 -90 4 -9 11 -8 29 4 23 14 26 14 44 -2 11 -10 20 -24
20 -32 0 -19 30 -16 46 5 7 9 14 29 14 43 0 15 7 32 15 39 13 11 15 8 15 -17
0 -16 -7 -38 -15 -49 -8 -10 -15 -22 -15 -26 0 -14 28 -8 34 7 7 19 37 19 62
0 46 -35 60 2 23 62 -12 19 -20 35 -18 37 2 2 24 9 49 17 40 12 45 18 48 46 2
22 -3 35 -17 45 -20 14 -20 14 2 27 19 13 20 14 4 26 -24 17 -14 36 31 60 23
13 38 28 40 43 3 21 1 22 -17 13 -52 -28 -85 -1 -74 63 5 31 3 36 -14 36 -22
0 -47 23 -36 33 3 4 19 7 34 7 20 0 28 6 33 25 7 29 1 45 -18 45 -7 0 -26 10
-41 21 l-27 22 -131 -67 c-147 -74 -207 -88 -286 -64 -70 21 -61 34 26 42 167
14 321 73 421 161 53 48 102 118 102 149 0 9 -14 30 -32 46 -27 25 -29 30 -15
36 10 3 24 1 32 -6 8 -7 15 -8 15 -3 0 16 -32 40 -62 47 -30 7 -36 31 -18 67
15 27 38 24 46 -6 4 -18 13 -25 30 -25 30 0 40 23 26 56 -10 20 -19 24 -57 24
-72 0 -123 -36 -137 -95 -4 -18 -6 -17 -16 7 -6 15 -9 35 -6 43 4 8 2 15 -2
15 -18 -1 -42 -27 -78 -83 -28 -43 -49 -63 -88 -83 -66 -34 -210 -70 -331 -83
-190 -21 -226 -13 -213 49 6 34 0 37 -30 12 -29 -23 -35 -47 -19 -69 22 -28
18 -33 -23 -33 -56 0 -124 51 -120 88 4 31 36 43 50 18 5 -9 13 -14 19 -11 13
9 11 51 -3 63 -25 20 -83 24 -121 8 -38 -16 -40 -18 -41 -76 -1 -32 -3 -35
-29 -33 -52 4 -75 44 -42 76 13 13 13 16 -2 21 -14 6 -28 -1 -79 -38 -19 -15
-44 12 -44 46 0 87 134 202 217 186 28 -5 29 -44 1 -52 -22 -6 -22 -7 -4 -21
23 -17 56 -4 63 26 5 16 15 19 79 19 63 0 75 -3 84 -20 8 -14 8 -26 0 -41 -16
-28 -71 -23 -85 9 -12 28 -27 23 -40 -12 -14 -40 19 -68 89 -74 49 -4 57 -2
81 23 24 23 26 32 20 63 -18 97 -19 91 11 104 67 28 135 129 114 168 -24 44
-84 53 -118 17z m-412 -1062 c0 -9 9 -15 21 -15 12 0 37 -13 56 -30 l34 -30
-58 0 c-48 0 -61 4 -84 26 -25 24 -26 27 -11 45 20 23 42 25 42 4z"/>
<path d="M1980 3650 c7 -13 10 -38 7 -56 -6 -36 10 -49 45 -38 15 5 18 12 13
32 -8 36 -38 76 -59 80 -15 3 -16 1 -6 -18z"/>
<path d="M1790 3645 c0 -2 10 -23 21 -45 23 -44 52 -51 57 -13 4 26 -30 63
-58 63 -11 0 -20 -2 -20 -5z"/>
<path d="M2288 3619 c-21 -10 -42 -28 -47 -38 -6 -10 -23 -21 -39 -24 -19 -4
-31 -14 -35 -27 -3 -12 -15 -24 -26 -27 -16 -4 -19 -9 -11 -23 6 -10 10 -28
10 -39 0 -10 6 -32 14 -48 17 -34 36 -94 36 -114 0 -8 18 -20 40 -27 34 -10
45 -10 71 4 28 14 33 14 55 0 20 -14 30 -14 64 -4 22 7 40 19 40 27 0 20 19
80 36 114 8 16 14 38 14 50 0 12 4 28 9 35 10 17 -53 82 -80 82 -10 0 -23 8
-28 19 -8 15 -75 63 -84 61 -1 -1 -19 -10 -39 -21z m142 -94 c7 -4 10 -19 7
-33 -3 -14 2 -36 10 -48 9 -15 12 -34 8 -57 -6 -31 -15 -39 -59 -61 -67 -33
-87 -33 -137 1 -48 32 -72 78 -55 108 6 11 11 35 11 54 0 29 4 36 25 42 31 8
174 4 190 -6z"/>
<path d="M2299 3449 c-25 -25 -21 -41 14 -53 21 -8 31 -6 44 6 15 16 15 19 -1
42 -20 31 -30 32 -57 5z"/>
<path d="M3469 3615 c-20 -13 -39 -31 -42 -39 -4 -9 -15 -16 -25 -16 -27 0
-91 -65 -81 -82 5 -7 9 -24 9 -38 0 -14 7 -34 15 -44 8 -11 15 -32 15 -47 0
-15 5 -31 10 -34 6 -3 10 -16 10 -28 0 -33 70 -54 104 -31 22 14 27 14 56 -1
47 -24 91 -5 113 49 9 23 17 47 17 53 0 7 6 27 14 45 33 79 35 96 14 101 -11
3 -22 15 -25 27 -4 13 -16 23 -35 27 -16 3 -36 16 -44 29 -9 12 -30 28 -47 35
-18 7 -34 14 -37 15 -3 2 -21 -8 -41 -21z m151 -90 c7 -5 10 -19 6 -37 -4 -18
0 -38 10 -53 14 -22 14 -27 -2 -55 -22 -36 -77 -74 -120 -83 -25 -5 -36 -1
-54 18 -12 13 -32 25 -43 27 -28 4 -43 62 -26 97 7 14 13 39 13 55 1 23 7 31
26 36 32 9 174 5 190 -5z"/>
<path d="M3484 3444 c-16 -23 -16 -26 -1 -42 13 -12 23 -14 44 -6 35 12 39 28
14 53 -27 27 -37 26 -57 -5z"/>
<path d="M4657 3615 c-21 -11 -43 -28 -48 -37 -6 -10 -16 -18 -23 -18 -7 0
-27 -13 -44 -30 -18 -16 -36 -30 -41 -30 -6 0 -4 -12 4 -27 9 -18 11 -32 4
-44 -7 -14 -4 -21 12 -33 17 -12 20 -21 16 -45 -5 -23 0 -40 17 -66 13 -19 26
-31 30 -28 3 4 17 0 31 -7 21 -11 27 -11 43 3 23 21 35 21 74 1 25 -13 35 -14
53 -4 13 7 28 9 34 6 7 -4 9 -1 5 8 -3 9 4 27 15 42 12 15 21 38 21 53 0 14 7
35 16 46 9 12 12 30 9 46 -4 15 -2 30 4 33 12 8 -29 51 -69 71 -16 8 -34 23
-39 33 -5 10 -27 25 -48 33 -35 14 -41 13 -76 -6z m128 -95 c8 -6 17 -25 20
-41 4 -16 11 -31 16 -34 12 -8 12 -55 -1 -55 -5 0 -10 -8 -10 -19 0 -10 -17
-30 -40 -45 -49 -32 -109 -35 -134 -7 -10 11 -28 21 -39 23 -18 2 -23 12 -29
52 -5 35 -3 58 7 75 7 14 16 34 19 43 2 9 15 18 28 20 43 7 149 -1 163 -12z"/>
<path d="M4664 3445 c-12 -50 19 -70 67 -45 24 13 24 25 -1 50 -28 28 -58 26
-66 -5z"/>
<path d="M3042 3592 c3 -25 1 -27 -37 -27 -35 0 -40 3 -39 23 0 17 -5 22 -23
22 -26 0 -98 -33 -108 -50 -3 -5 -15 -10 -26 -10 -14 0 -21 9 -26 31 l-6 31
-64 -64 c-81 -79 -90 -99 -63 -143 11 -18 20 -35 20 -39 0 -14 -30 -5 -43 14
-14 20 -14 19 -25 -5 -6 -14 -9 -31 -6 -39 3 -8 -2 -49 -11 -91 -18 -80 -16
-96 10 -75 9 7 18 11 21 8 8 -9 -56 -58 -74 -58 -31 0 -44 15 -36 43 6 25 4
27 -23 27 -17 0 -38 -9 -47 -19 -18 -20 -18 -24 6 -102 9 -30 8 -41 -6 -60
-16 -24 -21 -74 -10 -103 8 -20 24 -21 24 -1 0 15 47 51 55 43 3 -3 -6 -26
-21 -51 -30 -56 -29 -98 4 -112 19 -8 22 -16 20 -50 -2 -32 -7 -41 -24 -43
-14 -2 -29 6 -42 22 -28 36 -35 32 -29 -14 4 -35 3 -40 -14 -40 -11 0 -22 7
-25 15 -10 25 -24 6 -24 -30 0 -25 6 -39 24 -50 53 -35 145 -27 201 17 37 29
73 110 81 181 4 38 11 57 20 57 11 0 14 -24 14 -111 0 -100 2 -110 16 -98 32
27 57 94 62 167 3 40 8 70 13 65 15 -16 38 -125 32 -155 -5 -27 -4 -29 13 -20
33 18 56 50 75 104 l18 53 3 -70 3 -70 37 36 c28 27 38 46 43 83 7 43 11 48
46 63 50 20 79 56 79 99 l0 34 -43 -6 c-33 -5 -47 -2 -60 11 -26 26 -22 55 8
55 14 0 25 -4 25 -10 0 -5 7 -10 15 -10 17 0 35 39 35 75 0 18 10 30 38 44 53
27 72 72 72 171 0 78 -13 106 -26 55 -3 -14 -11 -25 -16 -25 -6 0 -8 6 -5 14
14 35 19 86 9 86 -6 0 -14 -5 -17 -10 -14 -22 -24 3 -19 44 6 44 -10 72 -26
46 -6 -9 -10 -7 -14 8 -4 11 -20 25 -37 31 -28 10 -30 9 -27 -17z m-218 -178
c-5 -20 -2 -26 15 -31 27 -7 27 -23 1 -23 -33 0 -70 30 -70 56 0 20 5 24 30
24 28 0 30 -2 24 -26z m220 -70 c24 -9 19 -20 -20 -43 -42 -25 -62 -27 -71 -5
-9 24 18 36 39 17 17 -15 18 -14 18 10 0 28 7 32 34 21z m-210 -74 c4 -24 11
-30 32 -30 15 0 36 8 47 18 19 16 19 16 12 -8 -11 -37 -26 -52 -47 -47 -17 5
-38 -18 -38 -42 0 -6 18 -16 41 -22 31 -10 45 -10 60 -1 25 16 39 15 39 -3 0
-18 -27 -33 -78 -41 -28 -4 -42 -12 -45 -25 -3 -10 -13 -22 -24 -25 -10 -3
-33 -13 -51 -22 -32 -16 -34 -16 -48 2 -16 23 -19 97 -3 113 7 7 3 18 -15 36
-30 30 -37 97 -11 97 10 0 15 -10 15 -29 0 -24 6 -31 42 -45 37 -15 43 -15 56
-2 11 11 12 19 5 28 -14 18 -24 63 -16 72 13 12 21 5 27 -24z"/>
<path d="M2760 3131 c-16 -31 -13 -91 5 -91 19 0 65 47 65 66 0 8 -13 20 -30
29 -27 14 -30 14 -40 -4z"/>
<path d="M1887 3554 c-20 -27 -55 -32 -63 -9 -11 27 -34 17 -34 -14 0 -35 20
-52 67 -60 60 -10 53 -31 -8 -28 -44 2 -54 -1 -57 -15 -2 -12 3 -18 16 -18 10
0 25 -11 32 -25 12 -22 11 -27 -5 -45 -24 -27 -12 -37 27 -22 37 14 47 8 30
-18 -7 -11 -12 -33 -12 -50 0 -23 7 -35 33 -50 17 -11 37 -21 42 -23 6 -2 4
-11 -4 -20 -17 -22 -79 -22 -109 -1 -20 14 -22 14 -22 -5 0 -24 46 -81 66 -81
17 0 19 -27 2 -33 -7 -3 1 -10 17 -17 20 -8 58 -10 111 -7 75 5 83 4 103 -17
12 -13 21 -35 21 -54 0 -38 11 -41 33 -9 15 21 16 20 16 -31 1 -44 -3 -57 -24
-78 -14 -14 -25 -29 -25 -33 0 -5 11 -12 25 -15 21 -5 25 -12 25 -44 0 -20 6
-45 13 -54 12 -15 16 -13 41 18 36 46 71 59 101 40 21 -14 23 -13 28 4 3 11
17 24 31 30 35 13 33 43 -4 99 -33 49 -37 84 -15 138 8 19 15 41 15 48 0 12
-62 35 -95 35 -9 0 -41 22 -70 49 -30 26 -78 62 -108 79 -99 56 -123 114 -87
218 12 36 19 72 16 80 -4 9 -21 14 -51 14 -33 0 -45 4 -45 15 0 8 -4 15 -10
15 -13 0 -13 -16 2 -57 7 -18 18 -33 25 -33 18 0 16 -25 -3 -41 -13 -10 -17
-10 -25 2 -13 21 -29 80 -29 111 0 36 -11 41 -33 12z"/>
<path d="M1742 3368 c-16 -16 -15 -59 3 -81 13 -18 14 -17 17 5 2 13 13 27 25
33 24 10 37 31 27 46 -8 13 -58 11 -72 -3z"/>
<path d="M2004 2948 c9 -12 16 -32 16 -44 0 -12 7 -27 16 -34 12 -11 18 -10
31 3 15 14 15 18 -2 44 -22 33 -45 52 -63 53 -10 0 -9 -5 2 -22z"/>
<path d="M1765 2840 c-3 -5 0 -10 8 -10 8 0 25 -11 38 -25 32 -33 69 -34 69 0
0 14 -8 29 -19 35 -25 13 -88 13 -96 0z"/>
<path d="M3744 2570 c-34 -13 -41 -32 -9 -20 22 8 34 6 62 -11 37 -23 58 -16
51 17 -2 14 -13 20 -43 21 -22 1 -50 -2 -61 -7z"/>
<path d="M4786 2540 c-34 -30 -50 -60 -23 -43 6 4 30 10 52 13 35 4 40 8 40
30 0 36 -27 36 -69 0z"/>
<path d="M3830 2390 c-21 -13 -2 -57 39 -89 31 -23 34 -24 26 -6 -4 11 -10 34
-13 50 -4 30 -19 55 -31 55 -3 0 -13 -4 -21 -10z"/>
<path d="M3960 2352 c0 -21 37 -59 47 -48 4 3 1 12 -5 18 -7 7 -12 20 -12 30
0 10 -7 18 -15 18 -8 0 -15 -8 -15 -18z"/>
<path d="M4919 2343 c-13 -34 1 -65 43 -96 37 -28 45 -15 17 25 -13 18 -24 46
-24 62 0 39 -22 45 -36 9z"/>
<path d="M5095 2310 c-9 -40 16 -80 50 -80 29 0 43 18 21 26 -9 4 -16 18 -16
33 0 53 -44 70 -55 21z"/>
<path d="M4351 2235 c-19 -25 -28 -55 -16 -55 3 0 14 9 25 20 11 11 33 20 50
20 25 0 30 -4 30 -25 0 -44 -31 -53 -240 -70 -293 -24 -388 -53 -424 -129 -47
-100 20 -171 206 -214 62 -14 120 -16 388 -14 332 3 399 -3 424 -40 16 -23 11
-50 -15 -74 -23 -21 -101 -16 -244 16 -203 44 -354 62 -581 67 -240 6 -363 -3
-504 -38 -57 -15 -96 -31 -120 -50 -19 -16 -38 -29 -42 -29 -17 0 -44 -37 -58
-80 -11 -33 -24 -49 -47 -61 -18 -9 -49 -31 -70 -50 -23 -21 -62 -41 -100 -53
-58 -17 -63 -20 -63 -47 0 -33 -1 -34 -40 -14 -17 9 -55 14 -99 14 -93 -1
-116 13 -126 77 -11 77 -76 126 -142 109 l-28 -7 26 -14 c23 -12 45 -42 37
-50 -2 -1 -21 4 -42 11 -45 16 -68 9 -40 -12 25 -18 9 -44 -37 -59 -30 -10
-31 -12 -11 -18 11 -4 30 -2 41 3 28 15 51 13 51 -4 0 -9 -9 -15 -25 -15 -16
0 -25 -6 -25 -15 0 -9 9 -15 25 -15 16 0 25 -6 25 -15 0 -10 -10 -15 -29 -15
-33 0 -47 -32 -32 -73 15 -39 28 -40 41 -2 6 19 16 33 21 30 5 -4 25 6 45 21
42 33 66 25 74 -24 5 -32 32 -72 49 -72 5 0 29 16 53 36 42 36 43 36 46 13 3
-16 -5 -32 -27 -51 l-30 -27 35 -11 c19 -6 32 -16 29 -21 -8 -12 -62 -11 -86
2 -18 9 -20 8 -17 -12 4 -34 44 -51 102 -45 60 7 85 -8 61 -34 -14 -15 -14
-18 1 -31 14 -11 22 -10 56 8 39 22 39 22 59 2 28 -28 40 -24 28 9 -6 19 -6
38 0 55 15 40 39 34 46 -10 10 -59 32 -101 62 -116 38 -19 93 -27 118 -18 18
8 16 10 -17 27 -48 22 -48 34 -2 34 l36 0 -26 31 c-30 35 -30 39 -14 74 13 30
28 33 28 5 0 -11 4 -20 10 -20 19 0 34 46 39 120 l6 75 39 -2 c22 -2 44 -7 50
-13 22 -22 39 -11 32 20 l-6 30 43 -6 c57 -9 76 -20 88 -52 10 -25 11 -26 21
-8 6 10 8 33 5 52 -5 32 6 48 16 22 2 -7 8 -1 12 14 4 18 1 34 -10 52 -16 24
-16 26 1 32 11 4 34 13 53 20 18 8 37 14 42 14 13 0 11 -27 -3 -50 -10 -16 -8
-23 15 -44 15 -14 27 -31 27 -39 0 -8 6 -20 14 -26 12 -10 15 -8 18 10 5 33
24 34 37 1 11 -26 46 -52 71 -52 5 0 21 5 37 12 l28 12 -40 5 c-31 5 -40 10
-40 26 0 16 8 21 38 23 70 6 86 -31 39 -88 -29 -34 -31 -34 -82 -5 -14 8 -26
11 -27 7 -1 -4 -4 -19 -7 -34 -9 -38 -42 -55 -66 -33 -15 13 -18 14 -23 2 -3
-8 2 -25 10 -37 14 -20 22 -22 65 -17 43 5 48 4 38 -8 -7 -8 -29 -15 -50 -15
-40 0 -66 -20 -56 -45 7 -20 26 -19 26 1 0 11 8 14 28 12 23 -3 27 -8 30 -40
4 -44 23 -50 40 -13 11 24 52 36 52 15 0 -19 25 -10 35 13 6 12 20 23 33 25
16 2 22 8 18 18 -4 10 3 14 24 14 57 0 73 41 44 121 -9 26 -13 57 -9 76 7 39
56 90 110 114 49 22 33 31 -50 27 l-60 -3 -3 40 c-2 22 -10 46 -19 53 -22 16
-99 15 -158 -3 -52 -15 -61 -14 -52 8 7 20 91 47 143 47 95 0 237 -69 273
-132 l16 -29 95 3 c57 2 97 -1 99 -7 7 -16 -79 -55 -121 -55 -21 0 -57 5 -81
12 -24 6 -52 8 -61 5 -16 -6 -16 -9 -2 -29 21 -30 20 -41 -3 -28 -35 18 -60
12 -76 -20 -17 -32 -19 -68 -6 -88 6 -10 10 -8 15 11 6 24 86 86 86 66 0 -5 8
-8 18 -5 9 3 24 1 32 -4 16 -11 13 -15 -37 -47 -16 -11 -15 -12 13 -12 34 -1
54 -17 54 -43 0 -20 18 -25 25 -5 2 6 9 31 15 55 7 28 16 42 27 42 13 0 14 -3
5 -12 -18 -18 -14 -56 8 -78 29 -29 35 -25 37 27 1 32 -4 54 -14 66 -21 23
-12 31 20 16 18 -8 27 -21 29 -43 4 -44 39 -43 52 2 7 26 14 32 36 32 40 0 71
30 80 76 l7 39 13 -27 c17 -36 25 -35 40 5 26 69 30 77 41 77 7 0 9 -11 6 -27
l-5 -28 24 28 c27 32 31 62 9 71 -24 9 -17 34 13 44 23 8 24 11 9 17 -11 5
-46 -3 -90 -19 -40 -14 -83 -26 -97 -26 -48 0 -186 97 -166 117 3 4 50 1 104
-6 172 -24 294 -26 337 -5 44 20 68 65 54 101 -11 28 5 38 53 31 28 -5 29 -4
13 9 -11 7 -25 13 -32 13 -20 0 -15 38 6 50 11 5 39 10 63 10 56 0 112 28 116
58 5 30 -24 62 -56 62 -25 0 -25 0 -7 -20 29 -33 4 -48 -99 -59 -88 -10 -113
-8 -87 8 9 6 10 11 2 15 -14 9 -68 -20 -81 -44 -10 -19 -21 -20 -225 -20 -181
0 -216 2 -229 16 -9 8 -16 19 -16 23 0 14 36 41 53 41 9 0 17 4 17 9 0 13 -26
21 -65 21 -41 0 -75 -38 -75 -82 0 -17 -4 -27 -10 -23 -5 3 -10 15 -10 26 0
27 -25 24 -44 -6 -12 -18 -25 -25 -49 -25 -55 0 -169 29 -224 56 -61 29 -75
59 -48 100 49 76 245 87 245 14 0 -26 -36 -43 -77 -37 -40 7 -41 -10 -2 -30
75 -38 169 13 169 92 0 26 42 65 69 65 46 0 56 -61 14 -83 l-26 -14 26 -18
c25 -16 29 -16 52 -1 15 10 26 29 30 53 10 57 13 63 33 63 33 0 92 79 92 124
0 26 -27 45 -71 51 -42 6 -48 4 -68 -20z m-1721 -775 c0 -11 -7 -20 -15 -20
-13 0 -13 3 -3 20 7 11 14 20 15 20 2 0 3 -9 3 -20z"/>
<path d="M3160 2217 c0 -32 -22 -49 -57 -45 -22 2 -28 8 -27 26 0 17 -3 21
-15 16 -42 -17 -54 -17 -48 -1 11 30 -39 20 -66 -13 -31 -36 -37 -37 -37 -5 0
29 -24 33 -57 10 -23 -16 -43 -88 -43 -153 0 -21 -5 -43 -12 -50 -17 -17 -48
-15 -48 3 0 20 -29 19 -37 -1 -3 -9 2 -42 12 -73 9 -31 19 -61 20 -67 2 -6 -5
-25 -16 -43 -35 -57 -85 -28 -77 45 5 42 -12 45 -41 8 -27 -34 -27 -93 -2
-126 16 -19 18 -32 11 -66 -12 -70 5 -126 59 -184 l47 -51 0 69 c-1 78 15 101
26 37 3 -22 16 -60 28 -83 27 -53 20 -75 -20 -66 -22 4 -30 2 -30 -8 0 -19 22
-35 57 -42 43 -8 91 36 100 91 7 49 22 72 34 53 13 -20 11 -65 -6 -104 l-14
-35 28 17 c40 23 63 68 76 143 5 35 15 63 20 62 17 -1 17 -99 0 -133 -18 -38
-16 -42 18 -29 31 12 53 51 70 126 7 31 17 57 22 58 6 1 12 -23 15 -53 l5 -55
23 32 c12 17 25 45 28 61 4 21 15 34 34 42 76 31 109 116 63 161 l-21 22 1
-38 c2 -59 -63 -102 -71 -47 -2 13 3 25 12 28 10 4 16 18 16 38 0 18 4 36 9
41 4 6 11 22 15 37 5 21 3 26 -8 22 -9 -3 -19 4 -27 17 -9 18 -9 24 1 27 7 3
26 17 44 32 25 23 31 35 30 67 -2 55 -24 120 -35 102 -12 -20 -40 0 -61 43 -9
19 -23 40 -32 47 -14 12 -16 10 -16 -12z m-200 -156 c-14 -28 -12 -41 5 -35
12 5 15 -3 15 -43 0 -60 25 -92 59 -74 27 15 30 14 24 -9 -3 -13 -14 -20 -29
-20 -16 0 -28 -10 -39 -30 -15 -29 -15 -31 10 -40 34 -13 82 -13 90 0 9 15 25
12 25 -5 0 -18 -39 -29 -80 -23 -23 3 -30 1 -30 -12 0 -21 -19 -40 -41 -40 -9
0 -22 -7 -29 -15 -7 -8 -18 -15 -24 -15 -6 1 -2 8 10 18 11 10 29 30 38 45
l18 27 -30 0 c-17 0 -34 5 -37 10 -15 24 -25 6 -25 -47 0 -49 -2 -55 -14 -43
-8 8 -17 33 -21 55 -5 34 -2 44 15 60 l21 19 -25 20 c-30 26 -44 66 -23 66 8
0 18 -11 21 -24 3 -14 20 -30 43 -41 35 -17 37 -17 50 1 16 22 17 41 2 50 -7
4 -9 22 -6 44 4 29 1 39 -14 48 -12 8 -19 24 -19 42 0 25 4 30 25 30 22 0 24
-3 15 -19z m213 -57 c6 -6 -35 -44 -47 -44 -11 0 -6 26 6 38 13 13 31 16 41 6z
m-65 -36 c7 -7 12 -16 12 -20 0 -15 -15 -8 -28 12 -13 22 -3 27 16 8z"/>
<path d="M3478 2169 c-21 -11 -38 -23 -38 -27 0 -9 -77 -62 -90 -62 -9 0 6
-56 20 -75 4 -5 15 -36 25 -67 l17 -56 104 0 c84 0 104 2 104 14 0 8 4 22 10
32 27 50 61 152 50 152 -13 0 -100 60 -100 69 0 6 -20 19 -60 38 -3 1 -22 -7
-42 -18z m94 -58 c23 -1 48 -61 48 -112 0 -33 -4 -41 -26 -49 -14 -6 -34 -20
-45 -33 -16 -19 -18 -19 -19 -4 0 21 -16 22 -28 1 -8 -15 -11 -14 -24 4 -8 12
-26 26 -41 31 -23 9 -27 16 -27 50 0 21 7 55 15 74 16 38 33 45 95 41 19 -1
43 -2 52 -3z"/>
<path d="M3480 2035 c-16 -20 3 -45 35 -45 12 0 28 7 35 15 16 20 -3 45 -35
45 -12 0 -28 -7 -35 -15z"/>
<path d="M4609 2174 c-6 -8 -16 -14 -22 -14 -5 0 -25 -11 -43 -25 -18 -14 -36
-25 -41 -25 -32 0 -51 -86 -25 -111 6 -7 12 -22 12 -33 1 -12 9 -35 18 -52
l17 -31 96 1 c108 1 129 11 129 60 0 17 6 40 14 51 14 21 27 85 16 85 -3 0
-20 13 -37 29 -17 15 -52 40 -77 54 -38 21 -47 23 -57 11z m92 -81 c25 -25 32
-143 9 -143 -6 0 -20 -9 -32 -20 -24 -22 -48 -26 -48 -8 0 6 -8 4 -19 -6 -19
-17 -20 -17 -36 8 -10 14 -25 26 -35 26 -14 0 -18 8 -18 38 0 20 4 42 9 49 6
6 9 24 7 39 -2 22 2 29 22 34 44 12 122 3 141 -17z"/>
<path d="M4607 2044 c-10 -11 -9 -42 3 -49 20 -12 51 6 48 28 -3 22 -36 35
-51 21z"/>
<path d="M2385 2159 c-22 -11 -43 -26 -48 -34 -4 -8 -18 -15 -30 -15 -29 0
-53 -36 -36 -56 6 -7 9 -20 5 -29 -3 -8 1 -27 9 -42 8 -16 17 -44 20 -64 l5
-36 90 -2 c115 -2 155 14 147 62 -3 18 1 39 8 47 7 8 15 32 18 53 5 33 2 40
-21 55 -14 9 -37 27 -50 39 -40 37 -73 43 -117 22z m108 -58 c10 -7 17 -23 17
-35 0 -11 4 -27 9 -34 14 -22 -11 -79 -44 -99 -16 -10 -34 -18 -40 -18 -5 0
-15 -4 -22 -8 -13 -8 -43 1 -43 14 0 5 -8 18 -17 28 -45 50 -46 51 -29 70 9
10 16 34 16 54 0 29 4 36 23 39 51 7 115 2 130 -11z"/>
<path d="M2400 2020 c0 -25 4 -30 25 -30 21 0 25 5 25 30 0 25 -4 30 -25 30
-21 0 -25 -5 -25 -30z"/>
<path d="M2085 2122 c9 -21 27 -72 31 -90 7 -25 39 -8 42 22 4 31 -26 70 -60
79 -15 4 -18 2 -13 -11z"/>
<path d="M1915 2040 c-8 -13 34 -49 58 -50 14 0 18 6 15 28 -2 22 -8 28 -35
30 -17 2 -34 -2 -38 -8z"/>
<path d="M2020 2013 c0 -22 -39 -53 -65 -53 -23 0 -24 -2 -15 -20 6 -12 24
-23 41 -27 32 -6 36 -15 14 -33 -16 -13 -21 -50 -7 -50 4 0 13 5 20 12 9 9 24
5 67 -16 30 -14 55 -29 55 -31 0 -2 -8 -20 -17 -39 -15 -33 -15 -37 1 -55 9
-10 37 -22 62 -26 38 -5 44 -10 44 -30 0 -16 -7 -25 -25 -29 -34 -9 -32 -17
15 -55 26 -20 40 -40 40 -55 0 -21 27 -56 43 -56 3 0 3 15 0 34 -7 44 11 54
27 16 l12 -30 17 32 c20 42 57 49 82 17 l17 -23 31 26 c16 14 48 29 70 33 39
6 39 7 34 46 -4 24 -1 45 7 54 11 13 2 15 -72 15 -79 0 -90 3 -159 39 -88 47
-113 85 -129 199 -6 41 -15 82 -20 93 -13 23 -45 25 -54 4 -3 -8 -15 -15 -26
-15 -11 0 -20 7 -20 15 0 8 -7 15 -15 15 -10 0 -15 -10 -15 -30 0 -20 -5 -30
-15 -30 -8 0 -15 6 -15 13 0 17 -29 56 -30 40z"/>
<path d="M2008 1809 c-25 -14 -22 -45 4 -63 21 -15 23 -14 35 16 21 50 3 72
-39 47z"/>
<path d="M2386 1444 c-25 -24 -20 -29 34 -31 57 -3 70 8 35 31 -31 20 -49 20
-69 0z"/>
<path d="M3718 1248 c-39 -13 -45 -38 -9 -38 16 0 34 -7 41 -15 22 -27 42 -18
38 16 -4 37 -29 51 -70 37z"/>
<path d="M4188 1165 c-8 -18 -9 -35 -2 -53 8 -22 16 -28 47 -30 37 -3 51 11
21 22 -12 5 -14 14 -9 37 11 50 -36 70 -57 24z"/>
<path d="M3473 1091 c-12 -3 -31 -18 -43 -33 -12 -16 -26 -28 -31 -28 -5 0
-20 -7 -33 -15 -21 -14 -22 -18 -12 -58 6 -23 15 -48 19 -55 5 -7 6 -21 2 -32
-4 -12 1 -25 14 -36 10 -9 17 -22 15 -28 -3 -8 24 -11 88 -10 56 1 99 -3 107
-10 12 -9 13 -6 8 15 -5 19 -3 29 8 33 8 3 15 16 15 30 0 13 5 26 12 28 6 2
11 21 10 41 -1 20 3 39 8 42 18 11 10 21 -34 44 -25 12 -53 32 -63 45 -20 26
-56 37 -90 27z m97 -78 c11 -10 20 -24 20 -33 0 -9 7 -26 16 -38 13 -18 13
-22 1 -22 -8 0 -17 -13 -20 -30 -4 -18 -13 -30 -22 -30 -9 0 -18 -7 -21 -15
-4 -8 -18 -15 -34 -15 -15 0 -33 7 -40 15 -7 8 -21 15 -31 15 -14 0 -21 9 -25
30 -4 17 -12 30 -19 30 -9 0 -7 12 7 40 11 22 24 40 29 40 5 0 9 7 9 15 0 22
103 21 130 -2z"/>
<path d="M3474 955 c-11 -27 5 -65 26 -65 13 0 22 9 26 25 8 34 -1 55 -26 55
-11 0 -23 -7 -26 -15z"/>
<path d="M3755 1020 c-3 -6 -7 -29 -7 -52 0 -32 5 -46 22 -60 33 -26 41 -22
22 12 -16 27 -16 31 1 59 9 16 17 34 17 40 0 14 -47 15 -55 1z"/>
<path d="M3960 1020 c0 -20 39 -50 57 -43 20 7 53 33 53 42 0 3 -25 7 -55 8
-31 2 -55 -2 -55 -7z"/>
</g>
</svg>
